solid 
 facet normal -1.000000e+00  0.000000e+00  0.000000e+00
   outer loop
     vertex  0.000000e+00  0.000000e+00  5.000000e+00
     vertex  0.000000e+00  1.418000e+02  0.000000e+00
     vertex  0.000000e+00  0.000000e+00  0.000000e+00
   endloop
 endfacet
 facet normal -1.000000e+00  0.000000e+00  0.000000e+00
   outer loop
     vertex  0.000000e+00  0.000000e+00  5.000000e+00
     vertex  0.000000e+00  1.418000e+02  5.000000e+00
     vertex  0.000000e+00  1.418000e+02  0.000000e+00
   endloop
 endfacet
 facet normal  0.000000e+00 -1.000000e+00 -0.000000e+00
   outer loop
     vertex  2.008000e+02  0.000000e+00  5.000000e+00
     vertex  0.000000e+00  0.000000e+00  0.000000e+00
     vertex  2.008000e+02  0.000000e+00  0.000000e+00
   endloop
 endfacet
 facet normal -0.000000e+00 -1.000000e+00  0.000000e+00
   outer loop
     vertex  2.008000e+02  0.000000e+00  5.000000e+00
     vertex  0.000000e+00  0.000000e+00  5.000000e+00
     vertex  0.000000e+00  0.000000e+00  0.000000e+00
   endloop
 endfacet
 facet normal  0.000000e+00  0.000000e+00  1.000000e+00
   outer loop
     vertex  0.000000e+00  1.418000e+02  5.000000e+00
     vertex  1.780000e+01  2.094000e+01  5.000000e+00
     vertex  1.780000e+01  1.208600e+02  5.000000e+00
   endloop
 endfacet
 facet normal  0.000000e+00  0.000000e+00  1.000000e+00
   outer loop
     vertex  0.000000e+00  1.418000e+02  5.000000e+00
     vertex  0.000000e+00  0.000000e+00  5.000000e+00
     vertex  1.780000e+01  2.094000e+01  5.000000e+00
   endloop
 endfacet
 facet normal  0.000000e+00  0.000000e+00  1.000000e+00
   outer loop
     vertex  1.830000e+02  2.094000e+01  5.000000e+00
     vertex  0.000000e+00  0.000000e+00  5.000000e+00
     vertex  2.008000e+02  0.000000e+00  5.000000e+00
   endloop
 endfacet
 facet normal  0.000000e+00  0.000000e+00  1.000000e+00
   outer loop
     vertex  1.830000e+02  2.094000e+01  5.000000e+00
     vertex  1.780000e+01  2.094000e+01  5.000000e+00
     vertex  0.000000e+00  0.000000e+00  5.000000e+00
   endloop
 endfacet
 facet normal  0.000000e+00  0.000000e+00  1.000000e+00
   outer loop
     vertex  1.830000e+02  1.208600e+02  5.000000e+00
     vertex  1.830000e+02  2.094000e+01  5.000000e+00
     vertex  2.008000e+02  0.000000e+00  5.000000e+00
   endloop
 endfacet
 facet normal  0.000000e+00  0.000000e+00  1.000000e+00
   outer loop
     vertex  2.008000e+02  1.418000e+02  5.000000e+00
     vertex  1.780000e+01  1.208600e+02  5.000000e+00
     vertex  1.830000e+02  1.208600e+02  5.000000e+00
   endloop
 endfacet
 facet normal  0.000000e+00  0.000000e+00  1.000000e+00
   outer loop
     vertex  2.008000e+02  1.418000e+02  5.000000e+00
     vertex  1.830000e+02  1.208600e+02  5.000000e+00
     vertex  2.008000e+02  0.000000e+00  5.000000e+00
   endloop
 endfacet
 facet normal  0.000000e+00  0.000000e+00  1.000000e+00
   outer loop
     vertex  2.008000e+02  1.418000e+02  5.000000e+00
     vertex  0.000000e+00  1.418000e+02  5.000000e+00
     vertex  1.780000e+01  1.208600e+02  5.000000e+00
   endloop
 endfacet
 facet normal  0.000000e+00  1.000000e+00  0.000000e+00
   outer loop
     vertex  2.008000e+02  1.418000e+02  5.000000e+00
     vertex  2.008000e+02  1.418000e+02  0.000000e+00
     vertex  0.000000e+00  1.418000e+02  0.000000e+00
   endloop
 endfacet
 facet normal  0.000000e+00  1.000000e+00  0.000000e+00
   outer loop
     vertex  2.008000e+02  1.418000e+02  5.000000e+00
     vertex  0.000000e+00  1.418000e+02  0.000000e+00
     vertex  0.000000e+00  1.418000e+02  5.000000e+00
   endloop
 endfacet
 facet normal  0.000000e+00  0.000000e+00 -1.000000e+00
   outer loop
     vertex  0.000000e+00  1.418000e+02  0.000000e+00
     vertex  1.500000e+01  1.268000e+02  0.000000e+00
     vertex  1.500000e+01  1.500000e+01  0.000000e+00
   endloop
 endfacet
 facet normal  0.000000e+00  0.000000e+00 -1.000000e+00
   outer loop
     vertex  0.000000e+00  1.418000e+02  0.000000e+00
     vertex  1.500000e+01  1.500000e+01  0.000000e+00
     vertex  0.000000e+00  0.000000e+00  0.000000e+00
   endloop
 endfacet
 facet normal -0.000000e+00  0.000000e+00 -1.000000e+00
   outer loop
     vertex  1.858000e+02  1.500000e+01  0.000000e+00
     vertex  0.000000e+00  0.000000e+00  0.000000e+00
     vertex  1.500000e+01  1.500000e+01  0.000000e+00
   endloop
 endfacet
 facet normal  0.000000e+00  0.000000e+00 -1.000000e+00
   outer loop
     vertex  2.008000e+02  0.000000e+00  0.000000e+00
     vertex  0.000000e+00  0.000000e+00  0.000000e+00
     vertex  1.858000e+02  1.500000e+01  0.000000e+00
   endloop
 endfacet
 facet normal  0.000000e+00  0.000000e+00 -1.000000e+00
   outer loop
     vertex  2.008000e+02  1.418000e+02  0.000000e+00
     vertex  1.858000e+02  1.500000e+01  0.000000e+00
     vertex  1.858000e+02  1.268000e+02  0.000000e+00
   endloop
 endfacet
 facet normal  0.000000e+00 -0.000000e+00 -1.000000e+00
   outer loop
     vertex  2.008000e+02  1.418000e+02  0.000000e+00
     vertex  2.008000e+02  0.000000e+00  0.000000e+00
     vertex  1.858000e+02  1.500000e+01  0.000000e+00
   endloop
 endfacet
 facet normal -0.000000e+00  0.000000e+00 -1.000000e+00
   outer loop
     vertex  2.008000e+02  1.418000e+02  0.000000e+00
     vertex  1.500000e+01  1.268000e+02  0.000000e+00
     vertex  0.000000e+00  1.418000e+02  0.000000e+00
   endloop
 endfacet
 facet normal  0.000000e+00  0.000000e+00 -1.000000e+00
   outer loop
     vertex  2.008000e+02  1.418000e+02  0.000000e+00
     vertex  1.858000e+02  1.268000e+02  0.000000e+00
     vertex  1.500000e+01  1.268000e+02  0.000000e+00
   endloop
 endfacet
 facet normal  1.000000e+00  0.000000e+00  0.000000e+00
   outer loop
     vertex  2.008000e+02  0.000000e+00  5.000000e+00
     vertex  2.008000e+02  0.000000e+00  0.000000e+00
     vertex  2.008000e+02  1.418000e+02  0.000000e+00
   endloop
 endfacet
 facet normal  1.000000e+00 -0.000000e+00  0.000000e+00
   outer loop
     vertex  2.008000e+02  0.000000e+00  5.000000e+00
     vertex  2.008000e+02  1.418000e+02  0.000000e+00
     vertex  2.008000e+02  1.418000e+02  5.000000e+00
   endloop
 endfacet
 facet normal  1.000000e+00  0.000000e+00  0.000000e+00
   outer loop
     vertex  1.780000e+01  2.094000e+01  5.000000e+00
     vertex  1.780000e+01  2.094000e+01  1.480000e+00
     vertex  1.780000e+01  1.208600e+02  1.480000e+00
   endloop
 endfacet
 facet normal  1.000000e+00 -0.000000e+00  0.000000e+00
   outer loop
     vertex  1.780000e+01  2.094000e+01  5.000000e+00
     vertex  1.780000e+01  1.208600e+02  1.480000e+00
     vertex  1.780000e+01  1.208600e+02  5.000000e+00
   endloop
 endfacet
 facet normal  0.000000e+00  1.000000e+00  0.000000e+00
   outer loop
     vertex  1.830000e+02  2.094000e+01  5.000000e+00
     vertex  1.830000e+02  2.094000e+01  1.480000e+00
     vertex  1.780000e+01  2.094000e+01  1.480000e+00
   endloop
 endfacet
 facet normal  0.000000e+00  1.000000e+00  0.000000e+00
   outer loop
     vertex  1.830000e+02  2.094000e+01  5.000000e+00
     vertex  1.780000e+01  2.094000e+01  1.480000e+00
     vertex  1.780000e+01  2.094000e+01  5.000000e+00
   endloop
 endfacet
 facet normal -1.000000e+00  0.000000e+00  0.000000e+00
   outer loop
     vertex  1.830000e+02  2.094000e+01  5.000000e+00
     vertex  1.830000e+02  1.208600e+02  1.480000e+00
     vertex  1.830000e+02  2.094000e+01  1.480000e+00
   endloop
 endfacet
 facet normal -1.000000e+00  0.000000e+00  0.000000e+00
   outer loop
     vertex  1.830000e+02  2.094000e+01  5.000000e+00
     vertex  1.830000e+02  1.208600e+02  5.000000e+00
     vertex  1.830000e+02  1.208600e+02  1.480000e+00
   endloop
 endfacet
 facet normal  0.000000e+00 -1.000000e+00 -0.000000e+00
   outer loop
     vertex  1.830000e+02  1.208600e+02  5.000000e+00
     vertex  1.780000e+01  1.208600e+02  1.480000e+00
     vertex  1.830000e+02  1.208600e+02  1.480000e+00
   endloop
 endfacet
 facet normal -0.000000e+00 -1.000000e+00  0.000000e+00
   outer loop
     vertex  1.830000e+02  1.208600e+02  5.000000e+00
     vertex  1.780000e+01  1.208600e+02  5.000000e+00
     vertex  1.780000e+01  1.208600e+02  1.480000e+00
   endloop
 endfacet
 facet normal  1.000000e+00  0.000000e+00  0.000000e+00
   outer loop
     vertex  1.500000e+01  1.500000e+01  1.480000e+00
     vertex  1.500000e+01  1.500000e+01  0.000000e+00
     vertex  1.500000e+01  1.268000e+02  0.000000e+00
   endloop
 endfacet
 facet normal  1.000000e+00 -0.000000e+00  0.000000e+00
   outer loop
     vertex  1.500000e+01  1.500000e+01  1.480000e+00
     vertex  1.500000e+01  1.268000e+02  0.000000e+00
     vertex  1.500000e+01  1.268000e+02  1.480000e+00
   endloop
 endfacet
 facet normal  0.000000e+00  1.000000e+00  0.000000e+00
   outer loop
     vertex  1.858000e+02  1.500000e+01  0.000000e+00
     vertex  1.500000e+01  1.500000e+01  0.000000e+00
     vertex  1.500000e+01  1.500000e+01  1.480000e+00
   endloop
 endfacet
 facet normal  0.000000e+00  1.000000e+00  0.000000e+00
   outer loop
     vertex  1.858000e+02  1.500000e+01  1.480000e+00
     vertex  1.858000e+02  1.500000e+01  0.000000e+00
     vertex  1.500000e+01  1.500000e+01  1.480000e+00
   endloop
 endfacet
 facet normal -1.000000e+00  0.000000e+00  0.000000e+00
   outer loop
     vertex  1.858000e+02  1.500000e+01  1.480000e+00
     vertex  1.858000e+02  1.268000e+02  0.000000e+00
     vertex  1.858000e+02  1.500000e+01  0.000000e+00
   endloop
 endfacet
 facet normal -1.000000e+00  0.000000e+00  0.000000e+00
   outer loop
     vertex  1.858000e+02  1.500000e+01  1.480000e+00
     vertex  1.858000e+02  1.268000e+02  1.480000e+00
     vertex  1.858000e+02  1.268000e+02  0.000000e+00
   endloop
 endfacet
 facet normal  0.000000e+00 -1.000000e+00  0.000000e+00
   outer loop
     vertex  1.858000e+02  1.268000e+02  0.000000e+00
     vertex  1.500000e+01  1.268000e+02  1.480000e+00
     vertex  1.500000e+01  1.268000e+02  0.000000e+00
   endloop
 endfacet
 facet normal -0.000000e+00 -1.000000e+00 -0.000000e+00
   outer loop
     vertex  1.858000e+02  1.268000e+02  1.480000e+00
     vertex  1.500000e+01  1.268000e+02  1.480000e+00
     vertex  1.858000e+02  1.268000e+02  0.000000e+00
   endloop
 endfacet
 facet normal  0.000000e+00 -0.000000e+00 -1.000000e+00
   outer loop
     vertex  1.780000e+01  1.208600e+02  1.480000e+00
     vertex  1.780000e+01  2.094000e+01  1.480000e+00
     vertex  1.500000e+01  1.500000e+01  1.480000e+00
   endloop
 endfacet
 facet normal  0.000000e+00  0.000000e+00 -1.000000e+00
   outer loop
     vertex  1.500000e+01  1.268000e+02  1.480000e+00
     vertex  1.780000e+01  1.208600e+02  1.480000e+00
     vertex  1.500000e+01  1.500000e+01  1.480000e+00
   endloop
 endfacet
 facet normal  0.000000e+00  0.000000e+00 -1.000000e+00
   outer loop
     vertex  1.858000e+02  1.500000e+01  1.480000e+00
     vertex  1.500000e+01  1.500000e+01  1.480000e+00
     vertex  1.780000e+01  2.094000e+01  1.480000e+00
   endloop
 endfacet
 facet normal -0.000000e+00 -0.000000e+00 -1.000000e+00
   outer loop
     vertex  1.830000e+02  2.094000e+01  1.480000e+00
     vertex  1.858000e+02  1.500000e+01  1.480000e+00
     vertex  1.780000e+01  2.094000e+01  1.480000e+00
   endloop
 endfacet
 facet normal  0.000000e+00  0.000000e+00 -1.000000e+00
   outer loop
     vertex  1.858000e+02  1.268000e+02  1.480000e+00
     vertex  1.830000e+02  1.208600e+02  1.480000e+00
     vertex  1.780000e+01  1.208600e+02  1.480000e+00
   endloop
 endfacet
 facet normal  0.000000e+00  0.000000e+00 -1.000000e+00
   outer loop
     vertex  1.858000e+02  1.268000e+02  1.480000e+00
     vertex  1.830000e+02  2.094000e+01  1.480000e+00
     vertex  1.830000e+02  1.208600e+02  1.480000e+00
   endloop
 endfacet
 facet normal -0.000000e+00  0.000000e+00 -1.000000e+00
   outer loop
     vertex  1.858000e+02  1.268000e+02  1.480000e+00
     vertex  1.780000e+01  1.208600e+02  1.480000e+00
     vertex  1.500000e+01  1.268000e+02  1.480000e+00
   endloop
 endfacet
 facet normal  0.000000e+00 -0.000000e+00 -1.000000e+00
   outer loop
     vertex  1.858000e+02  1.268000e+02  1.480000e+00
     vertex  1.858000e+02  1.500000e+01  1.480000e+00
     vertex  1.830000e+02  2.094000e+01  1.480000e+00
   endloop
 endfacet
endsolid
